<mxfile host="app.diagrams.net" agent="Mozilla/5.0 (Windows NT 10.0; Win64; x64) AppleWebKit/537.36 (KHTML, like Gecko) Chrome/131.0.0.0 Safari/537.36 Edg/131.0.0.0" version="26.0.2">
  <diagram name="Pagina-1" id="DZo81YC0OuCN9Fnlsujz">
    <mxGraphModel dx="1197" dy="725" grid="1" gridSize="10" guides="1" tooltips="1" connect="1" arrows="1" fold="1" page="1" pageScale="1" pageWidth="827" pageHeight="1169" math="0" shadow="0">
      <root>
        <mxCell id="0" />
        <mxCell id="1" parent="0" />
        <mxCell id="R-cpkzlaV6CIqcVad9lJ-1" value="" style="shape=mxgraph.cisco.switches.workgroup_switch;html=1;dashed=0;fillColor=#10739E;strokeColor=#ffffff;strokeWidth=2;verticalLabelPosition=bottom;verticalAlign=top;fontFamily=Helvetica;fontSize=36;fontColor=#FFB366" parent="1" vertex="1">
          <mxGeometry x="580" y="331.5" width="101" height="50" as="geometry" />
        </mxCell>
        <mxCell id="R-cpkzlaV6CIqcVad9lJ-2" value="" style="shape=mxgraph.cisco.switches.workgroup_switch;html=1;dashed=0;fillColor=#10739E;strokeColor=#ffffff;strokeWidth=2;verticalLabelPosition=bottom;verticalAlign=top;fontFamily=Helvetica;fontSize=36;fontColor=#FFB366" parent="1" vertex="1">
          <mxGeometry x="981" y="331.5" width="101" height="50" as="geometry" />
        </mxCell>
        <mxCell id="R-cpkzlaV6CIqcVad9lJ-3" value="" style="edgeStyle=orthogonalEdgeStyle;rounded=0;orthogonalLoop=1;jettySize=auto;html=1;" parent="1" source="R-cpkzlaV6CIqcVad9lJ-5" target="R-cpkzlaV6CIqcVad9lJ-1" edge="1">
          <mxGeometry relative="1" as="geometry" />
        </mxCell>
        <mxCell id="R-cpkzlaV6CIqcVad9lJ-4" value="" style="edgeStyle=orthogonalEdgeStyle;rounded=0;orthogonalLoop=1;jettySize=auto;html=1;" parent="1" source="R-cpkzlaV6CIqcVad9lJ-5" target="R-cpkzlaV6CIqcVad9lJ-2" edge="1">
          <mxGeometry relative="1" as="geometry" />
        </mxCell>
        <mxCell id="R-cpkzlaV6CIqcVad9lJ-5" value="" style="shape=mxgraph.cisco.routers.router;html=1;dashed=0;fillColor=#10739E;strokeColor=#ffffff;strokeWidth=2;verticalLabelPosition=bottom;verticalAlign=top;fontFamily=Helvetica;fontSize=36;fontColor=#FFB366" parent="1" vertex="1">
          <mxGeometry x="790" y="330" width="78" height="53" as="geometry" />
        </mxCell>
        <mxCell id="R-cpkzlaV6CIqcVad9lJ-6" style="edgeStyle=orthogonalEdgeStyle;curved=1;rounded=0;jumpStyle=none;html=1;exitX=0.75;exitY=0;entryX=0.75;entryY=0;shadow=0;labelBackgroundColor=#ffffff;startArrow=none;startFill=0;endArrow=none;endFill=0;endSize=10;jettySize=auto;orthogonalLoop=1;strokeColor=#23445D;strokeWidth=2;fillColor=#F08705;fontFamily=Helvetica;fontSize=25;fontColor=#23445D;align=left;" parent="1" edge="1">
          <mxGeometry relative="1" as="geometry">
            <mxPoint x="1643.75" y="324" as="sourcePoint" />
            <mxPoint x="1643.75" y="324" as="targetPoint" />
          </mxGeometry>
        </mxCell>
        <mxCell id="R-cpkzlaV6CIqcVad9lJ-7" value="" style="rounded=1;whiteSpace=wrap;html=1;strokeColor=none;fillColor=#BAC8D3;fontSize=24;fontColor=#23445D;align=center;opacity=60;" parent="1" vertex="1">
          <mxGeometry x="30" y="90" width="440" height="705" as="geometry" />
        </mxCell>
        <mxCell id="R-cpkzlaV6CIqcVad9lJ-8" value="" style="shape=mxgraph.cisco.computers_and_peripherals.pc;sketch=0;html=1;pointerEvents=1;dashed=0;fillColor=#036897;strokeColor=#ffffff;strokeWidth=2;verticalLabelPosition=bottom;verticalAlign=top;align=center;outlineConnect=0;" parent="1" vertex="1">
          <mxGeometry x="320" y="155" width="78" height="70" as="geometry" />
        </mxCell>
        <mxCell id="R-cpkzlaV6CIqcVad9lJ-9" value="" style="shape=mxgraph.cisco.computers_and_peripherals.pc;sketch=0;html=1;pointerEvents=1;dashed=0;fillColor=#036897;strokeColor=#ffffff;strokeWidth=2;verticalLabelPosition=bottom;verticalAlign=top;align=center;outlineConnect=0;" parent="1" vertex="1">
          <mxGeometry x="110" y="155" width="78" height="70" as="geometry" />
        </mxCell>
        <mxCell id="R-cpkzlaV6CIqcVad9lJ-10" value="" style="shape=mxgraph.cisco.computers_and_peripherals.pc;sketch=0;html=1;pointerEvents=1;dashed=0;fillColor=#036897;strokeColor=#ffffff;strokeWidth=2;verticalLabelPosition=bottom;verticalAlign=top;align=center;outlineConnect=0;" parent="1" vertex="1">
          <mxGeometry x="110" y="285" width="78" height="70" as="geometry" />
        </mxCell>
        <mxCell id="R-cpkzlaV6CIqcVad9lJ-11" value="" style="shape=mxgraph.cisco.computers_and_peripherals.pc;sketch=0;html=1;pointerEvents=1;dashed=0;fillColor=#036897;strokeColor=#ffffff;strokeWidth=2;verticalLabelPosition=bottom;verticalAlign=top;align=center;outlineConnect=0;" parent="1" vertex="1">
          <mxGeometry x="320" y="285" width="78" height="70" as="geometry" />
        </mxCell>
        <mxCell id="R-cpkzlaV6CIqcVad9lJ-12" value="" style="shape=mxgraph.cisco.computers_and_peripherals.pc;sketch=0;html=1;pointerEvents=1;dashed=0;fillColor=#036897;strokeColor=#ffffff;strokeWidth=2;verticalLabelPosition=bottom;verticalAlign=top;align=center;outlineConnect=0;" parent="1" vertex="1">
          <mxGeometry x="110" y="405" width="78" height="70" as="geometry" />
        </mxCell>
        <mxCell id="R-cpkzlaV6CIqcVad9lJ-13" value="" style="shape=mxgraph.cisco.computers_and_peripherals.pc;sketch=0;html=1;pointerEvents=1;dashed=0;fillColor=#036897;strokeColor=#ffffff;strokeWidth=2;verticalLabelPosition=bottom;verticalAlign=top;align=center;outlineConnect=0;" parent="1" vertex="1">
          <mxGeometry x="320" y="405" width="78" height="70" as="geometry" />
        </mxCell>
        <mxCell id="R-cpkzlaV6CIqcVad9lJ-14" value="" style="shape=mxgraph.cisco.computers_and_peripherals.pc;sketch=0;html=1;pointerEvents=1;dashed=0;fillColor=#036897;strokeColor=#ffffff;strokeWidth=2;verticalLabelPosition=bottom;verticalAlign=top;align=center;outlineConnect=0;" parent="1" vertex="1">
          <mxGeometry x="110" y="525" width="78" height="70" as="geometry" />
        </mxCell>
        <mxCell id="R-cpkzlaV6CIqcVad9lJ-15" value="" style="shape=mxgraph.cisco.computers_and_peripherals.pc;sketch=0;html=1;pointerEvents=1;dashed=0;fillColor=#036897;strokeColor=#ffffff;strokeWidth=2;verticalLabelPosition=bottom;verticalAlign=top;align=center;outlineConnect=0;" parent="1" vertex="1">
          <mxGeometry x="320" y="525" width="78" height="70" as="geometry" />
        </mxCell>
        <mxCell id="R-cpkzlaV6CIqcVad9lJ-16" value="" style="shape=mxgraph.cisco.computers_and_peripherals.pc;sketch=0;html=1;pointerEvents=1;dashed=0;fillColor=#036897;strokeColor=#ffffff;strokeWidth=2;verticalLabelPosition=bottom;verticalAlign=top;align=center;outlineConnect=0;" parent="1" vertex="1">
          <mxGeometry x="110" y="655" width="78" height="70" as="geometry" />
        </mxCell>
        <mxCell id="R-cpkzlaV6CIqcVad9lJ-17" value="" style="shape=mxgraph.cisco.computers_and_peripherals.pc;sketch=0;html=1;pointerEvents=1;dashed=0;fillColor=#036897;strokeColor=#ffffff;strokeWidth=2;verticalLabelPosition=bottom;verticalAlign=top;align=center;outlineConnect=0;" parent="1" vertex="1">
          <mxGeometry x="320" y="655" width="78" height="70" as="geometry" />
        </mxCell>
        <mxCell id="R-cpkzlaV6CIqcVad9lJ-18" value="" style="rounded=1;whiteSpace=wrap;html=1;strokeColor=none;fillColor=#BAC8D3;fontSize=24;fontColor=#23445D;align=center;opacity=60;" parent="1" vertex="1">
          <mxGeometry x="1190" y="90" width="440" height="705" as="geometry" />
        </mxCell>
        <mxCell id="R-cpkzlaV6CIqcVad9lJ-19" style="edgeStyle=orthogonalEdgeStyle;rounded=0;orthogonalLoop=1;jettySize=auto;html=1;exitX=0.28;exitY=0.5;exitDx=0;exitDy=0;exitPerimeter=0;" parent="1" source="R-cpkzlaV6CIqcVad9lJ-20" target="R-cpkzlaV6CIqcVad9lJ-2" edge="1">
          <mxGeometry relative="1" as="geometry" />
        </mxCell>
        <mxCell id="R-cpkzlaV6CIqcVad9lJ-20" value="" style="shape=mxgraph.cisco.computers_and_peripherals.laptop;sketch=0;html=1;pointerEvents=1;dashed=0;fillColor=#036897;strokeColor=#ffffff;strokeWidth=2;verticalLabelPosition=bottom;verticalAlign=top;align=center;outlineConnect=0;" parent="1" vertex="1">
          <mxGeometry x="1270" y="155" width="90" height="61" as="geometry" />
        </mxCell>
        <mxCell id="R-cpkzlaV6CIqcVad9lJ-21" value="" style="shape=mxgraph.cisco.computers_and_peripherals.laptop;sketch=0;html=1;pointerEvents=1;dashed=0;fillColor=#036897;strokeColor=#ffffff;strokeWidth=2;verticalLabelPosition=bottom;verticalAlign=top;align=center;outlineConnect=0;" parent="1" vertex="1">
          <mxGeometry x="1460" y="155" width="90" height="61" as="geometry" />
        </mxCell>
        <mxCell id="R-cpkzlaV6CIqcVad9lJ-22" value="" style="shape=mxgraph.cisco.computers_and_peripherals.laptop;sketch=0;html=1;pointerEvents=1;dashed=0;fillColor=#036897;strokeColor=#ffffff;strokeWidth=2;verticalLabelPosition=bottom;verticalAlign=top;align=center;outlineConnect=0;" parent="1" vertex="1">
          <mxGeometry x="1270" y="285" width="90" height="61" as="geometry" />
        </mxCell>
        <mxCell id="R-cpkzlaV6CIqcVad9lJ-23" value="" style="shape=mxgraph.cisco.computers_and_peripherals.laptop;sketch=0;html=1;pointerEvents=1;dashed=0;fillColor=#036897;strokeColor=#ffffff;strokeWidth=2;verticalLabelPosition=bottom;verticalAlign=top;align=center;outlineConnect=0;" parent="1" vertex="1">
          <mxGeometry x="1460" y="285" width="90" height="61" as="geometry" />
        </mxCell>
        <mxCell id="R-cpkzlaV6CIqcVad9lJ-24" value="" style="shape=mxgraph.cisco.computers_and_peripherals.laptop;sketch=0;html=1;pointerEvents=1;dashed=0;fillColor=#036897;strokeColor=#ffffff;strokeWidth=2;verticalLabelPosition=bottom;verticalAlign=top;align=center;outlineConnect=0;" parent="1" vertex="1">
          <mxGeometry x="1270" y="414" width="90" height="61" as="geometry" />
        </mxCell>
        <mxCell id="R-cpkzlaV6CIqcVad9lJ-25" value="" style="shape=mxgraph.cisco.computers_and_peripherals.laptop;sketch=0;html=1;pointerEvents=1;dashed=0;fillColor=#036897;strokeColor=#ffffff;strokeWidth=2;verticalLabelPosition=bottom;verticalAlign=top;align=center;outlineConnect=0;" parent="1" vertex="1">
          <mxGeometry x="1460" y="414" width="90" height="61" as="geometry" />
        </mxCell>
        <mxCell id="R-cpkzlaV6CIqcVad9lJ-26" value="" style="shape=mxgraph.cisco.computers_and_peripherals.laptop;sketch=0;html=1;pointerEvents=1;dashed=0;fillColor=#036897;strokeColor=#ffffff;strokeWidth=2;verticalLabelPosition=bottom;verticalAlign=top;align=center;outlineConnect=0;" parent="1" vertex="1">
          <mxGeometry x="1270" y="529.5" width="90" height="61" as="geometry" />
        </mxCell>
        <mxCell id="R-cpkzlaV6CIqcVad9lJ-27" value="" style="shape=mxgraph.cisco.computers_and_peripherals.laptop;sketch=0;html=1;pointerEvents=1;dashed=0;fillColor=#036897;strokeColor=#ffffff;strokeWidth=2;verticalLabelPosition=bottom;verticalAlign=top;align=center;outlineConnect=0;" parent="1" vertex="1">
          <mxGeometry x="1460" y="525" width="90" height="61" as="geometry" />
        </mxCell>
        <mxCell id="R-cpkzlaV6CIqcVad9lJ-28" value="" style="shape=mxgraph.cisco.computers_and_peripherals.laptop;sketch=0;html=1;pointerEvents=1;dashed=0;fillColor=#036897;strokeColor=#ffffff;strokeWidth=2;verticalLabelPosition=bottom;verticalAlign=top;align=center;outlineConnect=0;" parent="1" vertex="1">
          <mxGeometry x="1270" y="655" width="90" height="61" as="geometry" />
        </mxCell>
        <mxCell id="R-cpkzlaV6CIqcVad9lJ-29" value="" style="shape=mxgraph.cisco.computers_and_peripherals.laptop;sketch=0;html=1;pointerEvents=1;dashed=0;fillColor=#036897;strokeColor=#ffffff;strokeWidth=2;verticalLabelPosition=bottom;verticalAlign=top;align=center;outlineConnect=0;" parent="1" vertex="1">
          <mxGeometry x="1460" y="655" width="90" height="61" as="geometry" />
        </mxCell>
        <mxCell id="R-cpkzlaV6CIqcVad9lJ-30" value="&lt;font style=&quot;font-size: 16px;&quot; color=&quot;#23445d&quot;&gt;Computer groep 192.168.1.3 - 192.168.1.12&lt;/font&gt;" style="rounded=1;whiteSpace=wrap;html=1;strokeColor=none;fillColor=none;fontSize=14;fontColor=#742B21;align=center;fontStyle=1" parent="1" vertex="1">
          <mxGeometry x="30" y="110" width="440" height="19" as="geometry" />
        </mxCell>
        <mxCell id="R-cpkzlaV6CIqcVad9lJ-31" value="&lt;font style=&quot;font-size: 16px;&quot; color=&quot;#23445d&quot;&gt;Laptop groep 192.168.1.19 - 192.168.1.28&amp;nbsp;&lt;/font&gt;" style="rounded=1;whiteSpace=wrap;html=1;strokeColor=none;fillColor=none;fontSize=14;fontColor=#742B21;align=center;fontStyle=1" parent="1" vertex="1">
          <mxGeometry x="1190" y="110" width="440" height="19" as="geometry" />
        </mxCell>
        <mxCell id="R-cpkzlaV6CIqcVad9lJ-32" value="&lt;font style=&quot;font-size: 16px;&quot;&gt;S&lt;/font&gt;&lt;span style=&quot;font-size: 16px; background-color: initial;&quot;&gt;1&lt;/span&gt;" style="text;strokeColor=none;align=center;fillColor=none;html=1;verticalAlign=middle;whiteSpace=wrap;rounded=0;" parent="1" vertex="1">
          <mxGeometry x="550" y="344" width="40" height="25" as="geometry" />
        </mxCell>
        <mxCell id="R-cpkzlaV6CIqcVad9lJ-33" value="&lt;font style=&quot;font-size: 16px;&quot;&gt;S2&lt;/font&gt;" style="text;strokeColor=none;align=center;fillColor=none;html=1;verticalAlign=middle;whiteSpace=wrap;rounded=0;" parent="1" vertex="1">
          <mxGeometry x="1070" y="342" width="50" height="27" as="geometry" />
        </mxCell>
        <mxCell id="R-cpkzlaV6CIqcVad9lJ-34" value="&lt;font style=&quot;font-size: 16px;&quot;&gt;R1&lt;/font&gt;" style="text;strokeColor=none;align=center;fillColor=none;html=1;verticalAlign=middle;whiteSpace=wrap;rounded=0;" parent="1" vertex="1">
          <mxGeometry x="788" y="383" width="80" height="37" as="geometry" />
        </mxCell>
        <mxCell id="R-cpkzlaV6CIqcVad9lJ-35" value="&lt;font style=&quot;font-size: 16px;&quot;&gt;PC1&lt;/font&gt;" style="text;strokeColor=none;align=center;fillColor=none;html=1;verticalAlign=middle;whiteSpace=wrap;rounded=0;" parent="1" vertex="1">
          <mxGeometry x="110" y="225" width="60" height="30" as="geometry" />
        </mxCell>
        <mxCell id="R-cpkzlaV6CIqcVad9lJ-36" value="&lt;font style=&quot;font-size: 16px;&quot;&gt;PC2&lt;/font&gt;" style="text;strokeColor=none;align=center;fillColor=none;html=1;verticalAlign=middle;whiteSpace=wrap;rounded=0;" parent="1" vertex="1">
          <mxGeometry x="110" y="355" width="60" height="30" as="geometry" />
        </mxCell>
        <mxCell id="R-cpkzlaV6CIqcVad9lJ-37" value="&lt;font style=&quot;font-size: 16px;&quot;&gt;PC3&lt;/font&gt;" style="text;strokeColor=none;align=center;fillColor=none;html=1;verticalAlign=middle;whiteSpace=wrap;rounded=0;" parent="1" vertex="1">
          <mxGeometry x="110" y="475" width="60" height="30" as="geometry" />
        </mxCell>
        <mxCell id="R-cpkzlaV6CIqcVad9lJ-38" value="&lt;font style=&quot;font-size: 16px;&quot;&gt;PC4&lt;/font&gt;" style="text;strokeColor=none;align=center;fillColor=none;html=1;verticalAlign=middle;whiteSpace=wrap;rounded=0;" parent="1" vertex="1">
          <mxGeometry x="110" y="595" width="60" height="30" as="geometry" />
        </mxCell>
        <mxCell id="R-cpkzlaV6CIqcVad9lJ-39" value="&lt;font style=&quot;font-size: 16px;&quot;&gt;PC5&lt;/font&gt;" style="text;strokeColor=none;align=center;fillColor=none;html=1;verticalAlign=middle;whiteSpace=wrap;rounded=0;" parent="1" vertex="1">
          <mxGeometry x="110" y="725" width="60" height="30" as="geometry" />
        </mxCell>
        <mxCell id="R-cpkzlaV6CIqcVad9lJ-40" value="&lt;font style=&quot;font-size: 16px;&quot;&gt;PC6&lt;/font&gt;" style="text;strokeColor=none;align=center;fillColor=none;html=1;verticalAlign=middle;whiteSpace=wrap;rounded=0;" parent="1" vertex="1">
          <mxGeometry x="320" y="225" width="60" height="30" as="geometry" />
        </mxCell>
        <mxCell id="R-cpkzlaV6CIqcVad9lJ-41" value="&lt;font style=&quot;font-size: 16px;&quot;&gt;PC7&lt;/font&gt;" style="text;strokeColor=none;align=center;fillColor=none;html=1;verticalAlign=middle;whiteSpace=wrap;rounded=0;" parent="1" vertex="1">
          <mxGeometry x="320" y="353" width="60" height="30" as="geometry" />
        </mxCell>
        <mxCell id="R-cpkzlaV6CIqcVad9lJ-42" value="&lt;font style=&quot;font-size: 16px;&quot;&gt;PC8&lt;/font&gt;" style="text;strokeColor=none;align=center;fillColor=none;html=1;verticalAlign=middle;whiteSpace=wrap;rounded=0;" parent="1" vertex="1">
          <mxGeometry x="320" y="475" width="60" height="30" as="geometry" />
        </mxCell>
        <mxCell id="R-cpkzlaV6CIqcVad9lJ-43" value="&lt;font style=&quot;font-size: 16px;&quot;&gt;PC9&lt;/font&gt;" style="text;strokeColor=none;align=center;fillColor=none;html=1;verticalAlign=middle;whiteSpace=wrap;rounded=0;" parent="1" vertex="1">
          <mxGeometry x="320" y="595" width="60" height="30" as="geometry" />
        </mxCell>
        <mxCell id="R-cpkzlaV6CIqcVad9lJ-44" value="&lt;font style=&quot;font-size: 16px;&quot;&gt;PC10&lt;/font&gt;" style="text;strokeColor=none;align=center;fillColor=none;html=1;verticalAlign=middle;whiteSpace=wrap;rounded=0;" parent="1" vertex="1">
          <mxGeometry x="320" y="725" width="60" height="30" as="geometry" />
        </mxCell>
        <mxCell id="R-cpkzlaV6CIqcVad9lJ-45" value="&lt;font style=&quot;font-size: 16px;&quot;&gt;Laptop1&lt;/font&gt;" style="text;strokeColor=none;align=center;fillColor=none;html=1;verticalAlign=middle;whiteSpace=wrap;rounded=0;" parent="1" vertex="1">
          <mxGeometry x="1270" y="216" width="60" height="30" as="geometry" />
        </mxCell>
        <mxCell id="R-cpkzlaV6CIqcVad9lJ-46" value="&lt;font style=&quot;font-size: 16px;&quot;&gt;Laptop2&lt;/font&gt;" style="text;strokeColor=none;align=center;fillColor=none;html=1;verticalAlign=middle;whiteSpace=wrap;rounded=0;" parent="1" vertex="1">
          <mxGeometry x="1270" y="346" width="60" height="30" as="geometry" />
        </mxCell>
        <mxCell id="R-cpkzlaV6CIqcVad9lJ-47" value="&lt;font style=&quot;font-size: 16px;&quot;&gt;Laptop3&lt;/font&gt;" style="text;strokeColor=none;align=center;fillColor=none;html=1;verticalAlign=middle;whiteSpace=wrap;rounded=0;" parent="1" vertex="1">
          <mxGeometry x="1270" y="475" width="60" height="30" as="geometry" />
        </mxCell>
        <mxCell id="R-cpkzlaV6CIqcVad9lJ-48" value="&lt;font style=&quot;font-size: 16px;&quot;&gt;Laptop4&lt;/font&gt;" style="text;strokeColor=none;align=center;fillColor=none;html=1;verticalAlign=middle;whiteSpace=wrap;rounded=0;" parent="1" vertex="1">
          <mxGeometry x="1270" y="595" width="60" height="30" as="geometry" />
        </mxCell>
        <mxCell id="R-cpkzlaV6CIqcVad9lJ-49" value="&lt;font style=&quot;font-size: 16px;&quot;&gt;Laptop5&lt;/font&gt;" style="text;strokeColor=none;align=center;fillColor=none;html=1;verticalAlign=middle;whiteSpace=wrap;rounded=0;" parent="1" vertex="1">
          <mxGeometry x="1270" y="716" width="60" height="30" as="geometry" />
        </mxCell>
        <mxCell id="R-cpkzlaV6CIqcVad9lJ-50" value="&lt;font style=&quot;font-size: 16px;&quot;&gt;Laptop6&lt;/font&gt;" style="text;strokeColor=none;align=center;fillColor=none;html=1;verticalAlign=middle;whiteSpace=wrap;rounded=0;" parent="1" vertex="1">
          <mxGeometry x="1460" y="216" width="60" height="30" as="geometry" />
        </mxCell>
        <mxCell id="R-cpkzlaV6CIqcVad9lJ-51" value="&lt;font style=&quot;font-size: 16px;&quot;&gt;Laptop7&lt;/font&gt;" style="text;strokeColor=none;align=center;fillColor=none;html=1;verticalAlign=middle;whiteSpace=wrap;rounded=0;" parent="1" vertex="1">
          <mxGeometry x="1460" y="346" width="60" height="30" as="geometry" />
        </mxCell>
        <mxCell id="R-cpkzlaV6CIqcVad9lJ-52" value="&lt;font style=&quot;font-size: 16px;&quot;&gt;Laptop8&lt;/font&gt;" style="text;strokeColor=none;align=center;fillColor=none;html=1;verticalAlign=middle;whiteSpace=wrap;rounded=0;" parent="1" vertex="1">
          <mxGeometry x="1460" y="475" width="60" height="30" as="geometry" />
        </mxCell>
        <mxCell id="R-cpkzlaV6CIqcVad9lJ-53" value="&lt;font style=&quot;font-size: 16px;&quot;&gt;Laptop9&lt;/font&gt;" style="text;strokeColor=none;align=center;fillColor=none;html=1;verticalAlign=middle;whiteSpace=wrap;rounded=0;" parent="1" vertex="1">
          <mxGeometry x="1460" y="586" width="60" height="30" as="geometry" />
        </mxCell>
        <mxCell id="R-cpkzlaV6CIqcVad9lJ-54" value="&lt;font style=&quot;font-size: 16px;&quot;&gt;Laptop10&lt;/font&gt;" style="text;strokeColor=none;align=center;fillColor=none;html=1;verticalAlign=middle;whiteSpace=wrap;rounded=0;" parent="1" vertex="1">
          <mxGeometry x="1460" y="716" width="60" height="30" as="geometry" />
        </mxCell>
        <mxCell id="R-cpkzlaV6CIqcVad9lJ-55" style="edgeStyle=orthogonalEdgeStyle;rounded=0;orthogonalLoop=1;jettySize=auto;html=1;exitX=0.83;exitY=0.5;exitDx=0;exitDy=0;exitPerimeter=0;entryX=0.16;entryY=0.23;entryDx=0;entryDy=0;entryPerimeter=0;" parent="1" source="R-cpkzlaV6CIqcVad9lJ-11" target="R-cpkzlaV6CIqcVad9lJ-1" edge="1">
          <mxGeometry relative="1" as="geometry">
            <Array as="points">
              <mxPoint x="596" y="320" />
            </Array>
          </mxGeometry>
        </mxCell>
        <mxCell id="R-cpkzlaV6CIqcVad9lJ-56" style="edgeStyle=orthogonalEdgeStyle;rounded=0;orthogonalLoop=1;jettySize=auto;html=1;exitX=0.28;exitY=0.5;exitDx=0;exitDy=0;exitPerimeter=0;entryX=0.421;entryY=0.05;entryDx=0;entryDy=0;entryPerimeter=0;" parent="1" source="R-cpkzlaV6CIqcVad9lJ-21" target="R-cpkzlaV6CIqcVad9lJ-2" edge="1">
          <mxGeometry relative="1" as="geometry">
            <Array as="points">
              <mxPoint x="1485" y="150" />
              <mxPoint x="1024" y="150" />
              <mxPoint x="1024" y="250" />
              <mxPoint x="1024" y="250" />
            </Array>
          </mxGeometry>
        </mxCell>
        <mxCell id="R-cpkzlaV6CIqcVad9lJ-57" style="edgeStyle=orthogonalEdgeStyle;rounded=0;orthogonalLoop=1;jettySize=auto;html=1;exitX=0.28;exitY=0.5;exitDx=0;exitDy=0;exitPerimeter=0;entryX=0.614;entryY=0.01;entryDx=0;entryDy=0;entryPerimeter=0;" parent="1" source="R-cpkzlaV6CIqcVad9lJ-23" target="R-cpkzlaV6CIqcVad9lJ-2" edge="1">
          <mxGeometry relative="1" as="geometry">
            <Array as="points">
              <mxPoint x="1485" y="280" />
              <mxPoint x="1043" y="280" />
            </Array>
          </mxGeometry>
        </mxCell>
        <mxCell id="R-cpkzlaV6CIqcVad9lJ-58" style="edgeStyle=orthogonalEdgeStyle;rounded=0;orthogonalLoop=1;jettySize=auto;html=1;exitX=0.28;exitY=0.5;exitDx=0;exitDy=0;exitPerimeter=0;entryX=0.762;entryY=0.01;entryDx=0;entryDy=0;entryPerimeter=0;" parent="1" source="R-cpkzlaV6CIqcVad9lJ-22" target="R-cpkzlaV6CIqcVad9lJ-2" edge="1">
          <mxGeometry relative="1" as="geometry">
            <Array as="points">
              <mxPoint x="1058" y="316" />
            </Array>
          </mxGeometry>
        </mxCell>
        <mxCell id="R-cpkzlaV6CIqcVad9lJ-59" style="edgeStyle=orthogonalEdgeStyle;rounded=0;orthogonalLoop=1;jettySize=auto;html=1;exitX=0.28;exitY=0.5;exitDx=0;exitDy=0;exitPerimeter=0;" parent="1" source="R-cpkzlaV6CIqcVad9lJ-24" edge="1">
          <mxGeometry relative="1" as="geometry">
            <mxPoint x="1255.1999999999998" y="456" as="sourcePoint" />
            <mxPoint x="1050" y="381.5" as="targetPoint" />
          </mxGeometry>
        </mxCell>
        <mxCell id="R-cpkzlaV6CIqcVad9lJ-60" style="edgeStyle=orthogonalEdgeStyle;rounded=0;orthogonalLoop=1;jettySize=auto;html=1;exitX=0.28;exitY=0.5;exitDx=0;exitDy=0;exitPerimeter=0;entryX=0.87;entryY=0.74;entryDx=0;entryDy=0;entryPerimeter=0;" parent="1" source="R-cpkzlaV6CIqcVad9lJ-25" target="R-cpkzlaV6CIqcVad9lJ-2" edge="1">
          <mxGeometry relative="1" as="geometry">
            <mxPoint x="1120" y="380" as="targetPoint" />
            <Array as="points">
              <mxPoint x="1485" y="410" />
              <mxPoint x="1069" y="410" />
            </Array>
          </mxGeometry>
        </mxCell>
        <mxCell id="R-cpkzlaV6CIqcVad9lJ-61" style="edgeStyle=orthogonalEdgeStyle;rounded=0;orthogonalLoop=1;jettySize=auto;html=1;exitX=0.28;exitY=0.5;exitDx=0;exitDy=0;exitPerimeter=0;entryX=0.257;entryY=1.03;entryDx=0;entryDy=0;entryPerimeter=0;" parent="1" source="R-cpkzlaV6CIqcVad9lJ-28" target="R-cpkzlaV6CIqcVad9lJ-2" edge="1">
          <mxGeometry relative="1" as="geometry" />
        </mxCell>
        <mxCell id="R-cpkzlaV6CIqcVad9lJ-62" style="edgeStyle=orthogonalEdgeStyle;rounded=0;orthogonalLoop=1;jettySize=auto;html=1;exitX=0.28;exitY=0.5;exitDx=0;exitDy=0;exitPerimeter=0;entryX=0.584;entryY=1.06;entryDx=0;entryDy=0;entryPerimeter=0;" parent="1" source="R-cpkzlaV6CIqcVad9lJ-27" target="R-cpkzlaV6CIqcVad9lJ-2" edge="1">
          <mxGeometry relative="1" as="geometry">
            <Array as="points">
              <mxPoint x="1485" y="520" />
              <mxPoint x="1040" y="520" />
            </Array>
          </mxGeometry>
        </mxCell>
        <mxCell id="R-cpkzlaV6CIqcVad9lJ-63" style="edgeStyle=orthogonalEdgeStyle;rounded=0;orthogonalLoop=1;jettySize=auto;html=1;exitX=0.28;exitY=0.5;exitDx=0;exitDy=0;exitPerimeter=0;entryX=0.475;entryY=1.07;entryDx=0;entryDy=0;entryPerimeter=0;" parent="1" source="R-cpkzlaV6CIqcVad9lJ-26" target="R-cpkzlaV6CIqcVad9lJ-2" edge="1">
          <mxGeometry relative="1" as="geometry" />
        </mxCell>
        <mxCell id="R-cpkzlaV6CIqcVad9lJ-64" style="edgeStyle=orthogonalEdgeStyle;rounded=0;orthogonalLoop=1;jettySize=auto;html=1;exitX=0.83;exitY=0.5;exitDx=0;exitDy=0;exitPerimeter=0;entryX=0.287;entryY=0.03;entryDx=0;entryDy=0;entryPerimeter=0;" parent="1" source="R-cpkzlaV6CIqcVad9lJ-10" target="R-cpkzlaV6CIqcVad9lJ-1" edge="1">
          <mxGeometry relative="1" as="geometry">
            <Array as="points">
              <mxPoint x="175" y="270" />
              <mxPoint x="609" y="270" />
            </Array>
          </mxGeometry>
        </mxCell>
        <mxCell id="R-cpkzlaV6CIqcVad9lJ-65" style="edgeStyle=orthogonalEdgeStyle;rounded=0;orthogonalLoop=1;jettySize=auto;html=1;exitX=0.83;exitY=0.5;exitDx=0;exitDy=0;exitPerimeter=0;entryX=0.406;entryY=0.06;entryDx=0;entryDy=0;entryPerimeter=0;" parent="1" source="R-cpkzlaV6CIqcVad9lJ-8" target="R-cpkzlaV6CIqcVad9lJ-1" edge="1">
          <mxGeometry relative="1" as="geometry" />
        </mxCell>
        <mxCell id="R-cpkzlaV6CIqcVad9lJ-66" style="edgeStyle=orthogonalEdgeStyle;rounded=0;orthogonalLoop=1;jettySize=auto;html=1;exitX=0.83;exitY=0.5;exitDx=0;exitDy=0;exitPerimeter=0;entryX=0.5;entryY=0;entryDx=0;entryDy=0;entryPerimeter=0;" parent="1" source="R-cpkzlaV6CIqcVad9lJ-9" target="R-cpkzlaV6CIqcVad9lJ-1" edge="1">
          <mxGeometry relative="1" as="geometry">
            <Array as="points">
              <mxPoint x="175" y="150" />
              <mxPoint x="631" y="150" />
            </Array>
          </mxGeometry>
        </mxCell>
        <mxCell id="R-cpkzlaV6CIqcVad9lJ-67" style="edgeStyle=orthogonalEdgeStyle;rounded=0;orthogonalLoop=1;jettySize=auto;html=1;exitX=0.83;exitY=0.5;exitDx=0;exitDy=0;exitPerimeter=0;entryX=0.104;entryY=1.02;entryDx=0;entryDy=0;entryPerimeter=0;" parent="1" source="R-cpkzlaV6CIqcVad9lJ-12" target="R-cpkzlaV6CIqcVad9lJ-1" edge="1">
          <mxGeometry relative="1" as="geometry">
            <Array as="points">
              <mxPoint x="175" y="400" />
              <mxPoint x="591" y="400" />
            </Array>
          </mxGeometry>
        </mxCell>
        <mxCell id="R-cpkzlaV6CIqcVad9lJ-68" style="edgeStyle=orthogonalEdgeStyle;rounded=0;orthogonalLoop=1;jettySize=auto;html=1;exitX=0.83;exitY=0.5;exitDx=0;exitDy=0;exitPerimeter=0;entryX=0.198;entryY=1.04;entryDx=0;entryDy=0;entryPerimeter=0;" parent="1" source="R-cpkzlaV6CIqcVad9lJ-13" target="R-cpkzlaV6CIqcVad9lJ-1" edge="1">
          <mxGeometry relative="1" as="geometry" />
        </mxCell>
        <mxCell id="R-cpkzlaV6CIqcVad9lJ-69" style="edgeStyle=orthogonalEdgeStyle;rounded=0;orthogonalLoop=1;jettySize=auto;html=1;exitX=0.83;exitY=0.5;exitDx=0;exitDy=0;exitPerimeter=0;entryX=0.292;entryY=1.04;entryDx=0;entryDy=0;entryPerimeter=0;" parent="1" source="R-cpkzlaV6CIqcVad9lJ-14" target="R-cpkzlaV6CIqcVad9lJ-1" edge="1">
          <mxGeometry relative="1" as="geometry">
            <Array as="points">
              <mxPoint x="175" y="520" />
              <mxPoint x="610" y="520" />
            </Array>
          </mxGeometry>
        </mxCell>
        <mxCell id="R-cpkzlaV6CIqcVad9lJ-70" style="edgeStyle=orthogonalEdgeStyle;rounded=0;orthogonalLoop=1;jettySize=auto;html=1;exitX=0.83;exitY=0.5;exitDx=0;exitDy=0;exitPerimeter=0;entryX=0.396;entryY=1.05;entryDx=0;entryDy=0;entryPerimeter=0;" parent="1" source="R-cpkzlaV6CIqcVad9lJ-15" target="R-cpkzlaV6CIqcVad9lJ-1" edge="1">
          <mxGeometry relative="1" as="geometry" />
        </mxCell>
        <mxCell id="R-cpkzlaV6CIqcVad9lJ-71" style="edgeStyle=orthogonalEdgeStyle;rounded=0;orthogonalLoop=1;jettySize=auto;html=1;exitX=0.83;exitY=0.5;exitDx=0;exitDy=0;exitPerimeter=0;entryX=0.495;entryY=1.07;entryDx=0;entryDy=0;entryPerimeter=0;" parent="1" source="R-cpkzlaV6CIqcVad9lJ-16" target="R-cpkzlaV6CIqcVad9lJ-1" edge="1">
          <mxGeometry relative="1" as="geometry">
            <Array as="points">
              <mxPoint x="175" y="640" />
              <mxPoint x="630" y="640" />
            </Array>
          </mxGeometry>
        </mxCell>
        <mxCell id="R-cpkzlaV6CIqcVad9lJ-72" style="edgeStyle=orthogonalEdgeStyle;rounded=0;orthogonalLoop=1;jettySize=auto;html=1;exitX=0.83;exitY=0.5;exitDx=0;exitDy=0;exitPerimeter=0;entryX=0.594;entryY=1.05;entryDx=0;entryDy=0;entryPerimeter=0;" parent="1" source="R-cpkzlaV6CIqcVad9lJ-17" target="R-cpkzlaV6CIqcVad9lJ-1" edge="1">
          <mxGeometry relative="1" as="geometry" />
        </mxCell>
        <mxCell id="R-cpkzlaV6CIqcVad9lJ-73" value="" style="ellipse;shape=cloud;whiteSpace=wrap;html=1;" parent="1" vertex="1">
          <mxGeometry x="770" y="60" width="120" height="80" as="geometry" />
        </mxCell>
        <mxCell id="R-cpkzlaV6CIqcVad9lJ-74" value="Internet" style="text;html=1;align=center;verticalAlign=middle;whiteSpace=wrap;rounded=0;" parent="1" vertex="1">
          <mxGeometry x="790" y="85" width="80" height="35" as="geometry" />
        </mxCell>
        <mxCell id="R-cpkzlaV6CIqcVad9lJ-75" style="edgeStyle=orthogonalEdgeStyle;rounded=0;orthogonalLoop=1;jettySize=auto;html=1;exitX=0.55;exitY=0.95;exitDx=0;exitDy=0;exitPerimeter=0;entryX=0.5;entryY=0;entryDx=0;entryDy=0;entryPerimeter=0;" parent="1" source="R-cpkzlaV6CIqcVad9lJ-73" target="R-cpkzlaV6CIqcVad9lJ-5" edge="1">
          <mxGeometry relative="1" as="geometry">
            <Array as="points">
              <mxPoint x="829" y="136" />
            </Array>
          </mxGeometry>
        </mxCell>
        <mxCell id="R-cpkzlaV6CIqcVad9lJ-76" value="G0/0/0" style="text;html=1;align=center;verticalAlign=middle;whiteSpace=wrap;rounded=0;" parent="1" vertex="1">
          <mxGeometry x="740" y="325" width="60" height="30" as="geometry" />
        </mxCell>
        <mxCell id="R-cpkzlaV6CIqcVad9lJ-77" value="G0/0/1" style="text;html=1;align=center;verticalAlign=middle;whiteSpace=wrap;rounded=0;" parent="1" vertex="1">
          <mxGeometry x="860" y="325" width="60" height="30" as="geometry" />
        </mxCell>
        <mxCell id="R-cpkzlaV6CIqcVad9lJ-78" value="G0/1" style="text;html=1;align=center;verticalAlign=middle;whiteSpace=wrap;rounded=0;" parent="1" vertex="1">
          <mxGeometry x="670" y="325" width="60" height="30" as="geometry" />
        </mxCell>
        <mxCell id="R-cpkzlaV6CIqcVad9lJ-79" value="G0/1" style="text;html=1;align=center;verticalAlign=middle;whiteSpace=wrap;rounded=0;" parent="1" vertex="1">
          <mxGeometry x="950" y="325" width="60" height="30" as="geometry" />
        </mxCell>
        <mxCell id="R-cpkzlaV6CIqcVad9lJ-80" value="Fa0/1" style="text;html=1;align=center;verticalAlign=middle;whiteSpace=wrap;rounded=0;" parent="1" vertex="1">
          <mxGeometry x="1030" y="186" width="60" height="30" as="geometry" />
        </mxCell>
        <mxCell id="R-cpkzlaV6CIqcVad9lJ-81" value="Fa0/2" style="text;html=1;align=center;verticalAlign=middle;whiteSpace=wrap;rounded=0;" parent="1" vertex="1">
          <mxGeometry x="1080" y="316" width="60" height="30" as="geometry" />
        </mxCell>
        <mxCell id="R-cpkzlaV6CIqcVad9lJ-82" value="Fa0/3" style="text;html=1;align=center;verticalAlign=middle;whiteSpace=wrap;rounded=0;" parent="1" vertex="1">
          <mxGeometry x="1050" y="445" width="60" height="30" as="geometry" />
        </mxCell>
        <mxCell id="R-cpkzlaV6CIqcVad9lJ-83" value="Fa0/4" style="text;html=1;align=center;verticalAlign=middle;whiteSpace=wrap;rounded=0;" parent="1" vertex="1">
          <mxGeometry x="1030" y="560.5" width="60" height="30" as="geometry" />
        </mxCell>
        <mxCell id="R-cpkzlaV6CIqcVad9lJ-84" value="Fa0/5" style="text;html=1;align=center;verticalAlign=middle;whiteSpace=wrap;rounded=0;" parent="1" vertex="1">
          <mxGeometry x="1010" y="686" width="60" height="30" as="geometry" />
        </mxCell>
        <mxCell id="R-cpkzlaV6CIqcVad9lJ-85" value="Fa0/6" style="text;html=1;align=center;verticalAlign=middle;whiteSpace=wrap;rounded=0;" parent="1" vertex="1">
          <mxGeometry x="1030" y="155" width="60" height="30" as="geometry" />
        </mxCell>
        <mxCell id="R-cpkzlaV6CIqcVad9lJ-86" value="Fa0/7" style="text;html=1;align=center;verticalAlign=middle;whiteSpace=wrap;rounded=0;" parent="1" vertex="1">
          <mxGeometry x="1040" y="280" width="60" height="30" as="geometry" />
        </mxCell>
        <mxCell id="R-cpkzlaV6CIqcVad9lJ-87" value="Fa0/8" style="text;html=1;align=center;verticalAlign=middle;whiteSpace=wrap;rounded=0;" parent="1" vertex="1">
          <mxGeometry x="1070" y="414" width="60" height="30" as="geometry" />
        </mxCell>
        <mxCell id="R-cpkzlaV6CIqcVad9lJ-88" value="Fa0/9" style="text;html=1;align=center;verticalAlign=middle;whiteSpace=wrap;rounded=0;" parent="1" vertex="1">
          <mxGeometry x="1040" y="520" width="60" height="30" as="geometry" />
        </mxCell>
        <mxCell id="R-cpkzlaV6CIqcVad9lJ-89" value="Fa0/1" style="text;html=1;align=center;verticalAlign=middle;whiteSpace=wrap;rounded=0;" parent="1" vertex="1">
          <mxGeometry x="570" y="155" width="60" height="30" as="geometry" />
        </mxCell>
        <mxCell id="R-cpkzlaV6CIqcVad9lJ-90" value="Fa0/6" style="text;html=1;align=center;verticalAlign=middle;whiteSpace=wrap;rounded=0;" parent="1" vertex="1">
          <mxGeometry x="560" y="195" width="60" height="30" as="geometry" />
        </mxCell>
        <mxCell id="R-cpkzlaV6CIqcVad9lJ-91" value="Fa0/7" style="text;html=1;align=center;verticalAlign=middle;whiteSpace=wrap;rounded=0;" parent="1" vertex="1">
          <mxGeometry x="540" y="295" width="60" height="30" as="geometry" />
        </mxCell>
        <mxCell id="R-cpkzlaV6CIqcVad9lJ-92" value="Fa0/8" style="text;html=1;align=center;verticalAlign=middle;whiteSpace=wrap;rounded=0;" parent="1" vertex="1">
          <mxGeometry x="540" y="414" width="60" height="30" as="geometry" />
        </mxCell>
        <mxCell id="R-cpkzlaV6CIqcVad9lJ-93" value="Fa0/2" style="text;html=1;align=center;verticalAlign=middle;whiteSpace=wrap;rounded=0;" parent="1" vertex="1">
          <mxGeometry x="550" y="246" width="60" height="30" as="geometry" />
        </mxCell>
        <mxCell id="R-cpkzlaV6CIqcVad9lJ-94" value="Fa0/3" style="text;html=1;align=center;verticalAlign=middle;whiteSpace=wrap;rounded=0;" parent="1" vertex="1">
          <mxGeometry x="520" y="375" width="60" height="30" as="geometry" />
        </mxCell>
        <mxCell id="R-cpkzlaV6CIqcVad9lJ-95" value="Fa0/9" style="text;html=1;align=center;verticalAlign=middle;whiteSpace=wrap;rounded=0;" parent="1" vertex="1">
          <mxGeometry x="560" y="530.5" width="60" height="30" as="geometry" />
        </mxCell>
        <mxCell id="R-cpkzlaV6CIqcVad9lJ-96" value="Fa0/4" style="text;html=1;align=center;verticalAlign=middle;whiteSpace=wrap;rounded=0;" parent="1" vertex="1">
          <mxGeometry x="550" y="490" width="60" height="30" as="geometry" />
        </mxCell>
        <mxCell id="R-cpkzlaV6CIqcVad9lJ-97" value="Fa0/10" style="text;html=1;align=center;verticalAlign=middle;whiteSpace=wrap;rounded=0;" parent="1" vertex="1">
          <mxGeometry x="580" y="660" width="60" height="30" as="geometry" />
        </mxCell>
        <mxCell id="R-cpkzlaV6CIqcVad9lJ-98" value="Fa0/5" style="text;html=1;align=center;verticalAlign=middle;whiteSpace=wrap;rounded=0;" parent="1" vertex="1">
          <mxGeometry x="570" y="610" width="60" height="30" as="geometry" />
        </mxCell>
        <mxCell id="R-cpkzlaV6CIqcVad9lJ-99" value="Fa0/10" style="text;html=1;align=center;verticalAlign=middle;whiteSpace=wrap;rounded=0;" parent="1" vertex="1">
          <mxGeometry x="1020" y="650" width="60" height="30" as="geometry" />
        </mxCell>
        <mxCell id="R-cpkzlaV6CIqcVad9lJ-100" style="edgeStyle=orthogonalEdgeStyle;rounded=0;orthogonalLoop=1;jettySize=auto;html=1;exitX=0.28;exitY=0.5;exitDx=0;exitDy=0;exitPerimeter=0;entryX=0.375;entryY=1.083;entryDx=0;entryDy=0;entryPerimeter=0;" parent="1" source="R-cpkzlaV6CIqcVad9lJ-29" target="R-cpkzlaV6CIqcVad9lJ-2" edge="1">
          <mxGeometry relative="1" as="geometry">
            <Array as="points">
              <mxPoint x="1485" y="650" />
              <mxPoint x="1019" y="650" />
            </Array>
          </mxGeometry>
        </mxCell>
        <mxCell id="FYd1FSA1pvGnvRvmF5At-1" value="192.168.1.1" style="text;html=1;align=center;verticalAlign=middle;whiteSpace=wrap;rounded=0;" vertex="1" parent="1">
          <mxGeometry x="750" y="310" width="60" height="30" as="geometry" />
        </mxCell>
        <mxCell id="FYd1FSA1pvGnvRvmF5At-2" value="192.168.1.17" style="text;html=1;align=center;verticalAlign=middle;whiteSpace=wrap;rounded=0;" vertex="1" parent="1">
          <mxGeometry x="870" y="310" width="60" height="30" as="geometry" />
        </mxCell>
      </root>
    </mxGraphModel>
  </diagram>
</mxfile>
